<svg id="Layer_3" data-name="Layer 3" xmlns="http://www.w3.org/2000/svg" viewBox="0 0 798.2 124.25"><defs><style>.cls-1{fill:#d40f7d;}</style></defs><path class="cls-1" d="M171.37,100.24a9.51,9.51,0,0,0,3.89,8.06,14.77,14.77,0,0,0,8.75,2.5c4.45,0,11.12-2.08,11.12-7.64s-7.5-6.53-11.53-7.64c-14.87-3.75-33.49-4.17-33.49-23.63,0-17.23,18.76-22.09,32.93-22.09,15.7,0,32.52,4.58,33.21,23.34H194.43c0-2.91-1-5-3.05-6.25-1.81-1.25-4.31-1.81-7.51-1.81-3.89,0-10.14.42-10.14,5.42,0,6.67,15.84,8.2,26.68,10.43,14.45,2.91,18.34,13.47,18.34,19.45,0,19.32-18.34,25.71-34.6,25.71-17.23,0-34.6-5.7-35.29-25.85Z" transform="translate(-25.9 -25.88)"/><path class="cls-1" d="M223.55,51.88h22.51v8.34h.28c4.72-6.95,11.4-10.42,19.87-10.42,22.65,0,32.24,19.31,32.24,39.74,0,18.76-10,36.55-30.43,36.55-8.76,0-15.7-3.34-20.57-9.87h-.28v33.9H223.55Zm22.79,35.3c0,12.65,3.61,20.84,14.31,20.84,10.43,0,14.18-11,14.18-20.84,0-9.17-3.48-19.32-14-19.32C254.54,67.86,246.34,72.17,246.34,87.18Z" transform="translate(-25.9 -25.88)"/><path class="cls-1" d="M349.21,67.17H334.62V100c0,5.7,3.34,7,8.48,7,2.08,0,4-.28,6.11-.28V124c-4.31.14-8.61.7-12.92.7-20.15,0-25.29-6-25.29-25.43V67.17H299.05V51.88H311V26h23.62V51.88h14.59Z" transform="translate(-25.9 -25.88)"/><rect class="cls-1" x="36.21" y="36.22" width="25.9" height="25.9"/><path d="M355.56,26h23.63v98H355.56Z" transform="translate(-25.9 -25.88)"/><path d="M388.1,74.12c.42-9.45,4.72-15.57,11.25-19.32s14.6-5,22.93-5c17.1,0,33.63,3.75,33.63,24.18v31.54c0,6.12,0,12.79,2.78,18.48H434.93c-1-2.22-1-4.44-1.39-6.81-6.11,6.54-15,8.9-23.76,8.9-13.9,0-24.6-7-24.6-21.82,0-23.34,25.57-21.68,42-25,4-1,6.25-2.23,6.25-6.67,0-5.42-6.53-7.51-11.39-7.51-6.81,0-10.7,3.06-11.82,9Zm30.57,37.38c11.26,0,15-6.26,14.45-21.26-3.33,2.08-9.45,2.36-14.59,3.89-5.42,1.25-9.72,3.47-9.72,9.17C408.81,109.27,413.25,111.5,418.67,111.5Z" transform="translate(-25.9 -25.88)"/><path d="M464.31,26h23.62V59.8h.28c4.87-6.67,11.68-10,20.57-10,20.43,0,30.43,17.79,30.43,36.55,0,20.42-9.59,39.74-32.24,39.74-8.48,0-15.15-3.47-19.87-10.42h-.28V124H464.31ZM487.1,87.18c0,12.65,3.61,20.84,14.31,20.84,10.42,0,14.18-11,14.18-20.84,0-9.17-3.48-19.32-14-19.32C495.3,67.86,487.1,72.17,487.1,87.18Z" transform="translate(-25.9 -25.88)"/><path d="M590.61,67.17H576V100c0,5.7,3.33,7,8.47,7,2.09,0,4-.28,6.12-.28V124c-4.31.14-8.62.7-12.93.7-20.15,0-25.29-6-25.29-25.43V67.17H540.44V51.88h11.95V26H576V51.88h14.59Z" transform="translate(-25.9 -25.88)"/><path d="M615.43,93.71c.42,10,6.12,16.4,16.12,16.4,5.7,0,11.26-2.5,13.48-7.92h22.1c-4.45,16.67-19.74,23.9-35.86,23.9-23.48,0-39.46-14.18-39.46-38.35,0-22.1,17.65-37.94,38.91-37.94,25.84,0,38.77,19.45,37.66,43.91Zm29.32-13.2c-.41-8.2-6.11-14.73-14-14.73-8.34,0-13.76,5.84-15.29,14.73Z" transform="translate(-25.9 -25.88)"/><path d="M723.73,78.29c0-6.12-5.56-10.43-11.53-10.43-13.2,0-15.29,11.26-15.29,21.26,0,9.31,4,18.9,14,18.9,8.34,0,12.37-4.58,13.48-12.36h22.93c-2.23,19.45-17,30.43-36.27,30.43-21.68,0-37.8-14.73-37.8-37,0-22.92,14.59-39.32,37.8-39.32,18.06,0,33.77,9.59,35.57,28.49Z" transform="translate(-25.9 -25.88)"/><path d="M752.26,26h23.62V61.75h.28c3.75-7.37,13.34-12,22-12,24,0,26,17.51,26,27.93V124H800.48V81.9c0-7-2.37-12.65-11.82-12.65-8.89,0-12.78,7.65-12.78,15.43V124H752.26Z" transform="translate(-25.9 -25.88)"/><rect x="72.44" width="25.9" height="25.9"/><rect width="25.9" height="25.9"/><rect y="72.44" width="25.9" height="25.9"/><rect y="36.22" width="25.9" height="25.9"/><rect x="36.21" width="25.9" height="25.9"/><rect x="36.21" y="72.44" width="25.9" height="25.9"/><rect x="72.44" y="36.22" width="25.9" height="25.9"/><rect x="72.44" y="72.44" width="25.9" height="25.9"/></svg>